<?xml version="1.0" encoding="UTF-8"?><svg id="Layer_1" xmlns="http://www.w3.org/2000/svg" viewBox="0 0 560.95 66.65"><defs><style>.cls-1{fill:#fff;}</style></defs><path class="cls-1" d="M50.64,25.6h-18.32v-8.42l-2.08-2.14h-9.76l-2.16,2.16v32.33l2.16,2.08h9.76l2.08-2.08v-8h18.32v14.48l-10.64,10.64H10.64L0,56.01V10.71L10.64,0h29.36l10.64,10.69v14.91Z"/><path class="cls-1" d="M55.52,10.71L66.16,0h29.36l10.64,10.71v45.3l-10.64,10.63h-29.36l-10.64-10.63s0-45.3,0-45.3ZM87.84,17.2l-2.08-2.16h-9.76l-2.16,2.16v32.33l2.16,2.08h9.76l2.08-2.08V17.2Z"/><path class="cls-1" d="M147.92,58.4l-14.56-24.08v17.28h4v15.04h-26.32v-15.04h4V15.04h-4V0h21.44l15.44,25.76L163.36,0h21.44v15.04h-4v36.56h4v15.04h-26.32v-15.04h4v-17.28l-14.56,24.08h0Z"/><path class="cls-1" d="M226.16,58.4l-14.56-24.08v17.28h4v15.04h-26.32v-15.04h4V15.04h-4V0h21.44l15.44,25.76L241.6,0h21.44v15.04h-4v36.56h4v15.04h-26.32v-15.04h4v-17.28l-14.56,24.08Z"/><path class="cls-1" d="M322.16,55.96l-10.64,10.69h-29.36l-10.64-10.62V15.05h-4V0h26.32v15.04h-4v34.49l2.16,2.08h9.76l2.08-2.08V15.05h-4V0h26.32v15.04h-4v40.91h0Z"/><path class="cls-1" d="M370.88,66.64l-17.92-29.84v14.8h4v15.04h-26.32v-15.04h4V15.04h-4V0h21.68l18.32,30.56v-15.52h-4V0h26.32v15.04h-4v36.56h4v15.04h-22.08Z"/><path class="cls-1" d="M423.76,66.64h-26.32v-15.04h4V15.04h-4V0h26.32v15.04h-4v36.56h4v15.04Z"/><path class="cls-1" d="M484.55,18.96h-14.96v-3.92h-4v36.56h4v15.04h-26.4v-15.04h4.08V15.04h-4.08v3.92h-14.96V0h56.32v18.96h0Z"/><path class="cls-1" d="M534.07,36.63v14.98h4v15.04h-26.32v-15.04h4.08v-15.01l-21.68-21.55h-6.24V0h31.76v15.04h-2.72l8,8,8-8h-2.72V0h30.72v15.04h-5.28l-21.6,21.58h0Z"/></svg>