<svg width="21" height="20" viewBox="0 0 21 20" fill="none" xmlns="http://www.w3.org/2000/svg">
<path fill-rule="evenodd" clip-rule="evenodd" d="M10.9004 0C16.4284 0 20.9014 4.475 20.9004 10C20.9004 15.528 16.4254 20 10.9004 20C5.37239 20 0.900391 15.526 0.900391 10C0.899391 4.473 5.37539 0 10.9004 0ZM2.90039 10C2.90039 12.096 3.70539 14.067 5.16239 15.568L7.98839 7.088L16.4674 4.262C14.9674 2.805 12.9974 2 10.9004 2C8.76339 2 6.75439 2.832 5.24339 4.343C3.73239 5.854 2.90039 7.863 2.90039 10ZM9.56939 8.669L8.23839 12.663L12.2304 11.332L9.56939 8.669ZM10.9004 18C15.3224 18 18.9004 14.422 18.9004 10C18.9004 7.904 18.0954 5.933 16.6384 4.432L13.8124 12.912L5.33439 15.739C6.83439 17.195 8.80439 18 10.9004 18Z" fill="white"/>
</svg>
