<svg width="444" height="104" viewBox="0 0 444 104" fill="none" xmlns="http://www.w3.org/2000/svg">
<path d="M271.046 99.0703L263.541 104L255.927 98.165L259.524 88.8604H267.884L271.046 99.0703ZM227.104 13.5586L226.934 33.2861L240.847 34.2939V43.873L227.255 44.707L228.394 73.8613V73.8711C228.402 74.0332 228.586 76.1415 232.677 76.1416C236.93 76.1416 240.847 73.5723 240.847 73.5723V88.4404C241.017 92.6174 236.062 94.5686 235.312 94.8398L235.242 94.8633C235.228 94.8686 235.22 94.8715 235.219 94.8721C216.635 97.9713 217.999 84.4287 217.999 84.4287L217.396 46.7871H208.672L206.586 30.9609L217.412 31.376L217.425 9.15234L227.104 13.5586ZM14.4736 45.9932L38.9717 20.042L51.5732 25.3584L33.7656 47.0537L45.5771 94.3057H32.7646L23.3135 58.1035L14.3887 67.7021L14.5098 94.3057L0 93.7354V17.6777L14.5098 13.5918L14.4736 45.9932ZM48.4922 34.6172C48.4936 34.6156 73.2939 22.4429 76.2461 44.29L75.8877 91.2354L57.0615 91.2324H57.0498L57.0176 91.2334C57.0105 91.2334 57.0018 91.2335 56.9932 91.2344H56.9297C55.8623 91.2266 48.6086 90.8277 46.2559 81.457L46.249 81.4258L46.2275 81.3359C45.7971 79.4252 40.907 55.4653 65.0117 50.7715L65.0771 44.4863C65.0771 44.4862 65.0775 44.4851 65.0762 44.4844L65.0625 44.4678C64.7564 44.1212 60.0352 39.0307 51.8906 44.4648L48.4922 34.6172ZM186.391 37.748C198.097 37.9725 208.164 48.8822 208.872 62.1143C209.58 75.3439 200.089 87.1694 187.672 88.5283C175.255 89.8844 165.191 78.9747 165.19 64.1611C165.19 49.3473 174.682 37.5194 186.391 37.748ZM91.3779 34.1133C104.862 29.3839 112.081 29.4349 113.895 51.1855L118.688 88.4238H105.947L105.113 66.8857L103.93 51.5693C103.633 40.8305 94.815 43.557 92.1465 44.8535L92.8516 88.4238L80.6777 87.96L78.6982 3.63867L91.0977 0L91.3779 34.1133ZM141.722 36.3936C153.429 36.1674 162.921 47.9955 162.921 62.8086C162.921 77.624 152.858 88.533 140.439 87.1758C128.023 85.8194 118.533 73.992 119.24 60.7598C119.95 47.5295 130.014 36.6216 141.722 36.3936ZM275 13.7471L265.103 83.582L249.354 8.32129L275 13.7471ZM65.3252 61.2344C55.0849 59.6013 54.8729 74.7885 54.8721 74.8486C55.8718 84.6773 64.9327 82.2662 64.9824 82.2529L65.3252 61.2344ZM187.054 48.6484C180.984 48.5072 177.31 56.1636 178.003 65.1162C178.533 71.9689 182.399 75.7058 184.938 76.0352C191.377 76.8696 196.857 70.4022 196.49 62.1699C196.123 53.9367 193.127 48.7898 187.054 48.6484ZM141.061 47.2969C134.987 47.4364 131.99 52.5842 131.625 60.8174C131.256 69.049 136.736 75.5181 143.176 74.6826C145.716 74.3539 149.58 70.6177 150.109 63.7637C150.803 54.812 147.131 47.1559 141.061 47.2969Z" fill="white"/>
<g clip-path="url(#clip0_2040_14072)">
<path d="M443 95.5H287V17.5H443V95.5ZM312.104 34.9297L310.084 44.9336H327.91L318.162 53.7607L316.534 61.9336H322.071C324.156 61.9336 325.675 62.2604 326.631 62.9141C327.63 63.5679 328.13 64.527 328.13 65.791C328.13 66.9243 327.804 67.9052 327.152 68.7334C326.544 69.518 325.632 70.1286 324.416 70.5645C323.2 70.9567 321.701 71.1523 319.921 71.1523C317.793 71.1523 315.665 70.8257 313.537 70.1719C311.452 69.518 309.585 68.5808 307.935 67.3604L301.941 76.5801C304.156 78.2363 306.74 79.5003 309.693 80.3721C312.647 81.2002 315.774 81.6142 319.074 81.6143C323.33 81.6143 327.131 80.8945 330.475 79.4561C333.819 78.0177 336.425 76.0567 338.292 73.5723C340.203 71.0441 341.158 68.1888 341.158 65.0068C341.158 62.5222 340.529 60.364 339.27 58.5332C338.053 56.7026 336.294 55.3076 333.992 54.3486C333.319 54.05 332.606 53.7966 331.853 53.5869L343.504 43.0381L345.067 34.9297H312.104ZM372.724 34.0146C368.728 34.0147 365.189 34.6034 362.105 35.7803C359.022 36.9135 356.351 38.4605 354.093 40.4219C351.878 42.3834 350.031 44.6072 348.555 47.0918C347.122 49.5762 346.058 52.1916 345.363 54.9375C344.712 57.6835 344.386 60.3642 344.386 62.9795C344.386 67.0769 345.189 70.5208 346.796 73.3105C348.403 76.0566 350.64 78.1266 353.506 79.5215C356.372 80.9163 359.651 81.6142 363.343 81.6143C367.034 81.6143 370.313 80.9163 373.18 79.5215C376.089 78.1267 378.369 76.1875 380.02 73.7031C381.67 71.1749 382.495 68.1887 382.495 64.7451C382.495 61.9118 381.801 59.5142 380.411 57.5527C379.065 55.5913 377.284 54.109 375.069 53.1064C372.898 52.0603 370.552 51.5371 368.033 51.5371C365.992 51.5371 364.124 51.8429 362.431 52.4531C361.057 52.9248 359.804 53.6232 358.671 54.5479C358.785 54.1245 358.908 53.7092 359.043 53.3027C359.521 51.9952 360.129 50.7967 360.867 49.707C361.649 48.5737 362.561 47.6147 363.604 46.8301C364.689 46.0019 365.927 45.3695 367.316 44.9336C368.706 44.4977 370.27 44.2803 372.007 44.2803C373.57 44.2803 375.048 44.454 376.438 44.8027C377.871 45.1079 379.195 45.6748 380.411 46.5029L386.273 37.3496C384.753 36.3035 382.778 35.4963 380.346 34.9297C377.914 34.3195 375.373 34.0146 372.724 34.0146ZM409.036 34.0146C405.475 34.0147 402.218 34.7772 399.265 36.3027C396.311 37.8284 393.749 39.9648 391.577 42.7109C389.406 45.4134 387.734 48.5955 386.562 52.2568C385.389 55.8747 384.803 59.7764 384.803 63.9609C384.803 67.7094 385.497 70.8916 386.887 73.5068C388.276 76.1221 390.253 78.1266 392.815 79.5215C395.378 80.9163 398.396 81.6142 401.87 81.6143C405.431 81.6143 408.689 80.8518 411.643 79.3262C414.596 77.8005 417.137 75.6859 419.265 72.9834C421.436 70.2374 423.108 67.0553 424.28 63.4375C425.496 59.776 426.104 55.8525 426.104 51.668C426.104 47.9195 425.388 44.7373 423.955 42.1221C422.565 39.5068 420.589 37.5023 418.026 36.1074C415.507 34.7126 412.511 34.0146 409.036 34.0146ZM363.994 60.8223C365.775 60.8223 367.186 61.28 368.229 62.1953C369.271 63.1107 369.792 64.3745 369.792 65.9873C369.792 67.9924 369.163 69.562 367.903 70.6953C366.644 71.8286 365.08 72.3955 363.213 72.3955C361.953 72.3955 360.867 72.1553 359.955 71.6758C359.087 71.1527 358.413 70.4984 357.936 69.7139C357.501 68.8858 357.284 67.9701 357.284 66.9678C357.284 65.7476 357.567 64.6798 358.131 63.7646C358.739 62.8057 359.543 62.0859 360.542 61.6064C361.541 61.0835 362.691 60.8223 363.994 60.8223ZM407.799 44.6064C409.406 44.6065 410.687 45.1733 411.643 46.3066C412.641 47.44 413.141 49.3363 413.141 51.9951C413.141 53.8259 412.924 55.8313 412.489 58.0107C412.098 60.19 411.49 62.2603 410.665 64.2217C409.84 66.1832 408.798 67.8183 407.538 69.126C406.279 70.39 404.802 71.0215 403.108 71.0215C401.501 71.0215 400.198 70.4556 399.199 69.3223C398.244 68.189 397.767 66.2926 397.767 63.6338C397.767 61.803 397.962 59.7976 398.353 57.6182C398.787 55.4388 399.417 53.3686 400.242 51.4072C401.067 49.4457 402.11 47.8324 403.369 46.5684C404.629 45.2608 406.105 44.6064 407.799 44.6064Z" fill="url(#paint0_linear_2040_14072)" fill-opacity="0.9"/>
<path d="M346.278 33.9297L346.049 35.1191L344.485 43.2266L344.423 43.5547L344.175 43.7793L333.79 53.1816C333.988 53.2597 334.184 53.3407 334.376 53.4258H334.377C336.831 54.448 338.753 55.9565 340.093 57.9668C341.48 59.9837 342.158 62.3447 342.158 65.0068C342.158 68.4045 341.132 71.4699 339.091 74.1719C337.102 76.818 334.347 78.8796 330.87 80.375C327.382 81.8754 323.444 82.6143 319.074 82.6143C315.689 82.6142 312.471 82.1895 309.424 81.335L309.41 81.3311C306.356 80.4295 303.663 79.1157 301.343 77.3809L300.593 76.8193L301.103 76.0342L307.097 66.8154L307.675 65.9248L308.529 66.5566C310.083 67.7058 311.848 68.5932 313.831 69.2158L314.595 69.4365C316.376 69.9153 318.151 70.1523 319.922 70.1523C321.63 70.1523 323.013 69.9633 324.098 69.6152C325.177 69.2254 325.904 68.7126 326.362 68.1211L326.366 68.1152C326.868 67.477 327.13 66.7182 327.13 65.791C327.13 64.8407 326.781 64.2074 326.084 63.751L326.066 63.7393C325.364 63.2589 324.095 62.9336 322.071 62.9336H315.314L315.553 61.7383L317.182 53.5654L317.246 53.2412L317.491 53.0195L325.315 45.9336H308.862L309.104 44.7363L311.124 34.7324L311.286 33.9297H346.278ZM372.724 33.0146C375.45 33.0146 378.073 33.3287 380.589 33.96L380.588 33.9609C383.094 34.5464 385.192 35.3906 386.841 36.5254L387.638 37.0742L387.116 37.8887L381.253 47.042L380.698 47.9082L379.848 47.3291C378.739 46.5738 377.534 46.0592 376.229 45.7812L376.211 45.7773L376.193 45.7725C374.89 45.4455 373.495 45.2803 372.007 45.2803C370.352 45.2803 368.892 45.4874 367.616 45.8877C366.33 46.2911 365.197 46.8718 364.21 47.625L364.205 47.6289C363.253 48.3454 362.415 49.2246 361.69 50.2744C361.299 50.8531 360.947 51.467 360.632 52.1152C361.104 51.8865 361.59 51.6846 362.092 51.5117C363.908 50.8575 365.892 50.5371 368.033 50.5371C370.687 50.5371 373.174 51.0882 375.48 52.1953C377.853 53.2693 379.776 54.8654 381.227 56.9746C382.756 59.1337 383.495 61.7427 383.495 64.7451C383.495 68.3546 382.628 71.5363 380.857 74.249L380.854 74.2559C379.095 76.9028 376.671 78.9577 373.612 80.4238L373.611 80.4229C370.59 81.8919 367.16 82.6143 363.343 82.6143C359.524 82.6142 356.091 81.8918 353.068 80.4209C350.025 78.9398 347.639 76.7324 345.933 73.8154L345.93 73.8096C344.215 70.832 343.386 67.2052 343.386 62.9795C343.386 60.2807 343.722 57.5226 344.39 54.707L344.392 54.6992L344.394 54.6924C345.111 51.8561 346.21 49.155 347.688 46.5918L347.695 46.5801C349.226 44.0046 351.139 41.7022 353.43 39.6738L353.437 39.667C355.792 37.6209 358.568 36.0164 361.749 34.8457L362.357 34.623C365.427 33.5446 368.887 33.0147 372.724 33.0146ZM409.036 33.0146C412.642 33.0146 415.81 33.7388 418.504 35.2285C421.237 36.7165 423.351 38.8616 424.831 41.6416C426.363 44.4374 427.104 47.7938 427.104 51.668C427.104 55.9506 426.482 59.9815 425.229 63.7529C424.024 67.4706 422.298 70.7566 420.049 73.6016L420.05 73.6025C417.837 76.413 415.186 78.6204 412.102 80.2139C408.996 81.818 405.579 82.6143 401.87 82.6143C398.261 82.6142 395.071 81.889 392.337 80.4004C389.6 78.9103 387.484 76.7612 386.004 73.9756C384.52 71.1825 383.803 67.8304 383.803 63.9609C383.803 59.6821 384.402 55.6752 385.61 51.9482C386.816 48.1841 388.542 44.8911 390.798 42.084C393.052 39.2355 395.722 37.0082 398.806 35.415C401.911 33.811 405.327 33.0147 409.036 33.0146ZM363.994 61.8223C362.828 61.8223 361.841 62.0551 361.006 62.4922L360.99 62.501L360.975 62.5078C360.151 62.9031 359.489 63.4913 358.979 64.293C358.526 65.0292 358.284 65.9092 358.284 66.9678C358.284 67.8071 358.463 68.5512 358.806 69.2178C359.186 69.8331 359.724 70.3629 360.446 70.8027C361.182 71.1836 362.093 71.3955 363.213 71.3955C364.86 71.3955 366.178 70.9027 367.234 69.9521C368.244 69.0434 368.792 67.7658 368.792 65.9873C368.792 64.6107 368.359 63.6402 367.569 62.9463C366.756 62.2324 365.603 61.8223 363.994 61.8223ZM407.799 45.6064C406.398 45.6064 405.175 46.1341 404.089 47.2617L404.083 47.2686L404.077 47.2744C402.924 48.4314 401.949 49.9299 401.164 51.7949C400.368 53.6861 399.759 55.6854 399.337 57.7949L399.203 58.5859C398.911 60.4111 398.767 62.0931 398.767 63.6338C398.767 66.2128 399.238 67.8066 399.955 68.666C400.75 69.5652 401.771 70.0215 403.108 70.0215C404.518 70.0215 405.743 69.5089 406.824 68.4258C407.982 67.2217 408.959 65.6978 409.743 63.834C410.539 61.9431 411.126 59.9438 411.505 57.834L411.507 57.8242L411.509 57.8154C411.933 55.6872 412.141 53.7481 412.141 51.9951C412.141 49.412 411.646 47.823 410.893 46.9678L410.885 46.96L410.878 46.9512C410.13 46.0639 409.139 45.6065 407.799 45.6064Z" stroke="url(#paint1_linear_2040_14072)" stroke-width="2"/>
</g>
<rect x="288" y="18.5" width="154" height="76" rx="11" stroke="url(#paint2_linear_2040_14072)" stroke-width="2"/>
<defs>
<linearGradient id="paint0_linear_2040_14072" x1="290.588" y1="19.9214" x2="448.927" y2="49.375" gradientUnits="userSpaceOnUse">
<stop offset="0.0580807" stop-color="white"/>
<stop offset="1" stop-color="white" stop-opacity="0.8"/>
</linearGradient>
<linearGradient id="paint1_linear_2040_14072" x1="364.023" y1="30.9634" x2="371.606" y2="86.2869" gradientUnits="userSpaceOnUse">
<stop stop-color="white"/>
<stop offset="0.375" stop-color="white" stop-opacity="0.2"/>
<stop offset="0.605769" stop-color="white" stop-opacity="0.2"/>
<stop offset="1" stop-color="white"/>
</linearGradient>
<linearGradient id="paint2_linear_2040_14072" x1="365" y1="12.5" x2="381" y2="102" gradientUnits="userSpaceOnUse">
<stop stop-color="white"/>
<stop offset="0.375" stop-color="white" stop-opacity="0.2"/>
<stop offset="0.605769" stop-color="white" stop-opacity="0.2"/>
<stop offset="1" stop-color="white"/>
</linearGradient>
<clipPath id="clip0_2040_14072">
<rect x="287" y="17.5" width="156" height="78" rx="12" fill="white"/>
</clipPath>
</defs>
</svg>
