<svg width="66" height="15" viewBox="0 0 66 15" fill="none" xmlns="http://www.w3.org/2000/svg">
<path fill-rule="evenodd" clip-rule="evenodd" d="M17.3835 12.493H15.5175L15.3953 9.58333L15.2219 7.51399C15.1785 6.06314 13.8871 6.43149 13.4961 6.60663L13.5994 12.493L11.8163 12.4305L11.5264 1.03838L13.3425 0.546875L13.3836 5.15563C15.3585 4.51666 16.416 4.52353 16.6816 7.46216L17.3835 12.493ZM0 13.2107V2.93514L2.12509 2.38301L2.11988 6.76049L5.70807 3.25438L7.55371 3.97285L4.94566 6.9038L6.67541 13.2876H4.79883L3.41467 8.39671L2.10741 9.69352L2.12509 13.2876L0 13.2107ZM19.2789 8.76362C19.2249 9.8757 20.0275 10.7496 20.9707 10.6369C21.3427 10.5924 21.9089 10.0876 21.9864 9.16172C22.0881 7.95223 21.5502 6.91788 20.661 6.93691C19.7713 6.95579 19.3324 7.65122 19.2789 8.76362ZM17.4647 8.75558C17.5686 6.96806 19.0428 5.49435 20.7575 5.46364C22.4723 5.43309 23.8624 7.03092 23.8624 9.03228C23.8624 11.0338 22.3884 12.5077 20.5696 12.3244C18.751 12.1411 17.361 10.5433 17.4647 8.75558ZM27.3966 7.11992C26.5076 7.10088 25.9695 8.13524 26.0711 9.34472C26.1487 10.2706 26.7149 10.7754 27.0869 10.8199C28.0299 10.9326 28.8326 10.0589 28.7789 8.94663C28.7251 7.83422 28.2863 7.13895 27.3966 7.11992ZM27.4879 12.5071C25.6691 12.6904 24.1951 11.2165 24.1951 9.21514C24.1951 7.21361 25.5852 5.61579 27.3001 5.64665C29.0147 5.67704 30.4892 7.15092 30.5929 8.9386C30.6966 10.726 29.3065 12.3236 27.4879 12.5071ZM38.012 12.5517L37.485 13.8087L38.6003 14.597L39.6995 13.931L39.2362 12.5517H38.012ZM30.5633 6.86689L30.2578 4.72877L31.8434 4.78475L31.8453 1.7823L33.2629 2.37761L33.2381 5.0429L35.2758 5.17901V6.47311L33.285 6.58587L33.4519 10.5246C33.4519 10.5246 33.456 10.8327 34.0792 10.8327C34.7022 10.8327 35.2758 10.4856 35.2758 10.4856V12.4943C35.3029 13.1048 34.4515 13.3633 34.4515 13.3633C31.7296 13.782 31.9295 11.9524 31.9295 11.9524L31.8409 6.86689H30.5633ZM36.5221 1.67085L40.2782 2.40387L38.8286 11.8387L36.5221 1.67085ZM8.03759 10.6611C8.18443 11.9925 9.51837 11.6614 9.51837 11.6614L9.56858 8.8218C8.0657 8.6006 8.03759 10.6611 8.03759 10.6611ZM7.60028 6.55582L7.10264 5.22542C7.10264 5.22526 10.7352 3.5804 11.1676 6.53215L11.1152 12.8745L8.35765 12.8742C8.35765 12.8742 7.14732 12.9214 6.77503 11.5536C6.77503 11.5536 5.84432 8.0684 9.52218 7.40784L9.53181 6.5587C9.53181 6.5587 8.83445 5.79625 7.60028 6.55582Z" fill="white"/>
<path fill-rule="evenodd" clip-rule="evenodd" d="M65.7302 1.58594L43.0681 2.01353L42.2129 12.7032L64.875 13.5584L65.7302 1.58594ZM48.2401 11.7332C47.6585 11.7332 47.1215 11.6443 46.6289 11.4664C46.1432 11.2817 45.719 11.0217 45.3564 10.6865C45.0007 10.3512 44.7236 9.95443 44.5252 9.49606C44.3268 9.03768 44.2276 8.53142 44.2276 7.97727C44.2276 7.42311 44.3268 6.91685 44.5252 6.45847C44.7236 6.0001 45.0041 5.6033 45.3667 5.26807C45.7293 4.93284 46.1569 4.67629 46.6494 4.49841C47.1489 4.3137 47.6962 4.22134 48.2914 4.22134C49.0029 4.22134 49.6357 4.34106 50.1899 4.58051C50.7509 4.81996 51.2127 5.16203 51.5752 5.60672L50.0257 6.97158C49.7999 6.71161 49.5536 6.51663 49.2868 6.38664C49.0268 6.24981 48.7361 6.1814 48.4145 6.1814C48.1477 6.1814 47.9048 6.22245 47.6859 6.30454C47.4738 6.38664 47.2925 6.50636 47.142 6.66372C46.9915 6.82107 46.8752 7.00921 46.7931 7.22813C46.711 7.44706 46.67 7.69677 46.67 7.97727C46.67 8.24408 46.711 8.49037 46.7931 8.71614C46.8752 8.93506 46.9915 9.1232 47.142 9.28055C47.2925 9.4379 47.4704 9.56105 47.6756 9.64999C47.8877 9.73209 48.1238 9.77313 48.3837 9.77313C48.6574 9.77313 48.9242 9.72866 49.1842 9.63973C49.2114 9.62971 49.2387 9.61899 49.2663 9.60756V7.78229H51.37V10.8199C50.9322 11.114 50.4327 11.3398 49.8717 11.4972C49.3107 11.6545 48.7668 11.7332 48.2401 11.7332ZM54.5466 11.4561C55.0461 11.6408 55.5865 11.7332 56.1681 11.7332C56.7564 11.7332 57.2969 11.6408 57.7895 11.4561C58.282 11.2714 58.7096 11.0114 59.0722 10.6762C59.4348 10.3341 59.7153 9.93391 59.9137 9.47553C60.119 9.01716 60.2216 8.51774 60.2216 7.97727C60.2216 7.42995 60.119 6.93053 59.9137 6.479C59.7153 6.02063 59.4348 5.62382 59.0722 5.2886C58.7096 4.94653 58.282 4.68313 57.7895 4.49841C57.2969 4.3137 56.7564 4.22134 56.1681 4.22134C55.5865 4.22134 55.0461 4.3137 54.5466 4.49841C54.0541 4.68313 53.6265 4.94653 53.2639 5.2886C52.9013 5.62382 52.6174 6.02063 52.4121 6.479C52.2137 6.93053 52.1145 7.42995 52.1145 7.97727C52.1145 8.51774 52.2137 9.01716 52.4121 9.47553C52.6174 9.93391 52.9013 10.3341 53.2639 10.6762C53.6265 11.0114 54.0541 11.2714 54.5466 11.4561ZM56.794 9.64999C56.6025 9.73209 56.3938 9.77313 56.1681 9.77313C55.9423 9.77313 55.7302 9.73209 55.5318 9.64999C55.3402 9.56789 55.1692 9.45159 55.0187 9.30108C54.875 9.14372 54.7621 8.95559 54.6801 8.73666C54.598 8.51089 54.5569 8.25776 54.5569 7.97727C54.5569 7.69677 54.598 7.44706 54.6801 7.22813C54.7621 7.00237 54.875 6.81423 55.0187 6.66372C55.1692 6.50636 55.3402 6.38664 55.5318 6.30454C55.7302 6.22245 55.9423 6.1814 56.1681 6.1814C56.3938 6.1814 56.6025 6.22245 56.794 6.30454C56.9924 6.38664 57.1635 6.50636 57.3071 6.66372C57.4577 6.81423 57.574 7.00237 57.6561 7.22813C57.7382 7.44706 57.7792 7.69677 57.7792 7.97727C57.7792 8.25776 57.7382 8.51089 57.6561 8.73666C57.574 8.95559 57.4577 9.14372 57.3071 9.30108C57.1635 9.45159 56.9924 9.56789 56.794 9.64999ZM60.7415 4.38568L61.2033 8.81891H63.0505L63.5123 4.38568H60.7415ZM61.152 11.3126C61.4051 11.5521 61.7301 11.6718 62.1269 11.6718C62.5305 11.6718 62.8555 11.5521 63.1018 11.3126C63.3549 11.0663 63.4815 10.7756 63.4815 10.4403C63.4815 10.0983 63.3549 9.81091 63.1018 9.57831C62.8555 9.3457 62.5305 9.22939 62.1269 9.22939C61.7301 9.22939 61.4051 9.3457 61.152 9.57831C60.8989 9.81091 60.7723 10.0983 60.7723 10.4403C60.7723 10.7756 60.8989 11.0663 61.152 11.3126Z" fill="white"/>
</svg>
