<svg width="22" height="18" viewBox="0 0 22 18" fill="none" xmlns="http://www.w3.org/2000/svg">
<path fill-rule="evenodd" clip-rule="evenodd" d="M21.447 5.10966L11.447 0.109656C11.166 -0.0313438 10.834 -0.0313438 10.552 0.109656L0.552 5.10966C0.35 5.20966 0.197 5.38366 0.107 5.57266C0.046 5.69466 0 5.90166 0 6.00466V11.7697C0 12.3217 0.448 12.7697 1 12.7697C1.552 12.7697 2 12.3217 2 11.7697V7.17166L11.015 10.9267L21.372 6.93266C21.737 6.78566 21.983 6.43966 21.999 6.04566C22.016 5.65166 21.799 5.28666 21.447 5.10966ZM11 13.0047C10.869 13.0047 10.738 12.9787 10.615 12.9277L4 10.1717V13.1847C4 13.5637 4.214 13.9097 4.553 14.0797C4.7173 14.1618 4.88209 14.2457 5.04837 14.3305C6.61773 15.1302 8.31996 15.9977 11 15.9977C13.6812 15.9977 15.3872 15.128 16.956 14.3284L16.9561 14.3283C17.1209 14.2443 17.2842 14.161 17.447 14.0797C17.786 13.9107 18 13.5637 18 13.1857V10.3847L11.359 12.9387C11.243 12.9817 11.122 13.0047 11 13.0047ZM0 15.0047C0 14.4527 0.448 14.0047 1 14.0047C1.552 14.0047 2 14.4527 2 15.0047V17.0047C2 17.5567 1.552 18.0047 1 18.0047C0.448 18.0047 0 17.5567 0 17.0047V15.0047Z" fill="white"/>
</svg>
