<svg width="29" height="28" viewBox="0 0 29 28" fill="none" xmlns="http://www.w3.org/2000/svg">
<path fill-rule="evenodd" clip-rule="evenodd" d="M24.741 5.64979C25.7055 6.61557 25.7055 8.29968 24.741 9.26545L23.8333 10.1744L20.2151 6.55749L21.1253 5.64979C22.0911 4.68528 23.7752 4.68401 24.741 5.64979ZM5.76257 24.627L6.51373 21.6299L8.75963 23.8783L5.76257 24.627ZM18.4307 8.34389L22.0451 11.9583L11.2284 22.775L7.61404 19.1606L18.4307 8.34389ZM26.5235 3.86343C25.564 2.9027 24.2877 2.375 22.9293 2.375C21.5734 2.375 20.2958 2.9027 19.3364 3.86343L4.93306 18.2655C4.93306 18.2655 4.9318 18.2693 4.93054 18.2705C4.82828 18.374 4.6528 18.6467 4.60104 18.8525L2.80078 26.0548C2.69221 26.484 2.81972 26.9398 3.13281 27.2529L3.13407 27.2541L3.13659 27.2554C3.44968 27.5685 3.90416 27.696 4.33466 27.5887L11.5357 25.7872C11.7415 25.7354 12.0154 25.5599 12.1177 25.4577C12.1189 25.4564 12.1227 25.4551 12.1227 25.4551L26.526 11.0518C27.4855 10.0924 28.0145 8.81603 28.0132 7.45889C28.0132 6.10049 27.4855 4.82542 26.526 3.86469L26.5235 3.86343ZM8.90869 3.67969C8.90869 5.60149 10.4674 7.16016 12.3892 7.16016V8.32031C10.4674 8.32031 8.90869 9.87898 8.90869 11.8008H7.74854C7.74854 9.87898 6.18987 8.32031 4.26807 8.32031V7.16016C6.18987 7.16016 7.74854 5.60149 7.74854 3.67969H8.90869ZM3.10791 0.199219C3.10791 1.16041 3.88696 1.93945 4.84814 1.93945V2.51953C3.88696 2.51953 3.10791 3.29858 3.10791 4.25977H2.52783C2.52783 3.29858 1.74879 2.51953 0.787598 2.51953V1.93945C1.74879 1.93945 2.52783 1.16041 2.52783 0.199219H3.10791Z" fill="white"/>
</svg>
