<svg width="16" height="16" viewBox="0 0 16 16" fill="none" xmlns="http://www.w3.org/2000/svg">
<rect width="16" height="16" rx="8" fill="white"/>
<rect x="0.500122" y="0.5" width="15" height="15" rx="7.5" fill="#EB670F"/>
<mask id="mask0_3250_10576" style="mask-type:luminance" maskUnits="userSpaceOnUse" x="0" y="0" width="16" height="16">
<rect x="0.499939" y="0.5" width="15" height="15" rx="7.5" fill="white"/>
</mask>
<g mask="url(#mask0_3250_10576)">
<path d="M7.86996 3.5C7.86996 3.5 17.791 14.421 8.58796 15.75C-0.419535 15.75 5.91171 6.678 5.91171 6.678C5.91171 6.678 6.62996 9.625 7.02146 9.625C8.06571 9.27825 7.86996 3.5 7.86996 3.5Z" fill="white"/>
</g>
<mask id="mask1_3250_10576" style="mask-type:luminance" maskUnits="userSpaceOnUse" x="0" y="0" width="16" height="16">
<rect x="0.499939" y="0.5" width="15" height="15" rx="7.5" fill="white"/>
</mask>
<g mask="url(#mask1_3250_10576)">
<path d="M7.98639 9.375C7.98639 9.375 13.3724 14.8355 8.37639 15.5C3.48639 15.5 6.92339 10.964 6.92339 10.964C6.92339 10.964 7.31339 12.4375 7.52589 12.4375C8.09264 12.2643 7.98639 9.375 7.98639 9.375Z" fill="#EB670F"/>
</g>
</svg>
